<?xml version="1.0" encoding="UTF-8"?>
<svg id="Layer_1" data-name="Layer 1" xmlns="http://www.w3.org/2000/svg" xmlns:xlink="http://www.w3.org/1999/xlink" viewBox="0 0 1259.65 1259.65">
  <defs>
    <style>
      .cls-1 {
        fill: #f06b52;
      }

      .cls-1, .cls-2, .cls-3, .cls-4, .cls-5, .cls-6, .cls-7, .cls-8, .cls-9, .cls-10, .cls-11, .cls-12, .cls-13, .cls-14, .cls-15, .cls-16, .cls-17, .cls-18, .cls-19, .cls-20, .cls-21, .cls-22, .cls-23, .cls-24, .cls-25, .cls-26, .cls-27, .cls-28, .cls-29, .cls-30, .cls-31, .cls-32 {
        stroke-width: 0px;
      }

      .cls-2 {
        fill: #fed7b6;
      }

      .cls-3 {
        fill: #ab2941;
      }

      .cls-33 {
        clip-path: url(#clippath);
      }

      .cls-4 {
        fill: none;
      }

      .cls-5 {
        fill: #f89f7f;
      }

      .cls-6 {
        fill: #5865ae;
      }

      .cls-7 {
        fill: #f6b6a6;
      }

      .cls-8 {
        fill: #b93848;
      }

      .cls-9 {
        fill: #fbdec8;
      }

      .cls-10 {
        fill: #f7a499;
      }

      .cls-11 {
        fill: #f5eee5;
      }

      .cls-12 {
        fill: #611d4f;
      }

      .cls-13 {
        fill: #6879ba;
      }

      .cls-14 {
        fill: #fbfafc;
      }

      .cls-15 {
        fill: #fdcb9c;
      }

      .cls-16 {
        fill: #f9e2d6;
      }

      .cls-17 {
        fill: #4f5eaa;
      }

      .cls-18 {
        fill: #c3d3ec;
      }

      .cls-19 {
        fill: #ac2941;
      }

      .cls-20 {
        fill: #e0493e;
      }

      .cls-21 {
        fill: #f48069;
      }

      .cls-22 {
        fill: #ec6650;
      }

      .cls-23 {
        fill: #e03d62;
      }

      .cls-24 {
        fill: #992a4a;
      }

      .cls-25 {
        fill: #fbd5c5;
      }

      .cls-26 {
        fill: #5d1d4c;
      }

      .cls-27 {
        fill: #481543;
      }

      .cls-28 {
        fill: #f27a66;
      }

      .cls-29 {
        fill: #f4763a;
      }

      .cls-30 {
        fill: #fbd5c3;
      }

      .cls-31 {
        fill: #e63859;
      }

      .cls-32 {
        fill: #f7f7ed;
      }
    </style>
    <clipPath id="clippath">
      <rect class="cls-4" x="0" y="0" width="1259.65" height="1259.65" rx="629.82" ry="629.82"/>
    </clipPath>
  </defs>
  <g class="cls-33">
    <g>
      <path class="cls-4" d="M667.52,1003.82c-1.8-.6-3.6-1.2-5.4-1.8,1.8.61,3.6,1.2,5.4,1.8Z"/>
      <g>
        <path class="cls-4" d="M701.81,400.26s0,0,0,0c0,0,0,0,0,0,.03.05.06.1.08.15-.06-.28-.11-.57-.16-.85-.21.72-.44,1.44-.67,2.15.24-.48.49-.96.73-1.44Z"/>
        <path class="cls-26" d="M793.28,574.58c.57-.18,1.14-.36,1.73-.56-.19.88-.53,1.69-1,2.46,1.47,3.96,2.86,8.38,4.07,13.2.62-2.41.96-4.93.96-7.53v-13.72s0,0,0-.01l-8.17.48c.81,1.76,1.62,3.65,2.42,5.68Z"/>
        <path class="cls-26" d="M795.29,553.94c-.22-.4-.45-.8-.69-1.19-.03.42-.06.83-.1,1.24l.8-.06Z"/>
        <path class="cls-26" d="M744.32,770.58c1.16.12,2.33.15,3.51.08,7.83-.49,15.01-5.26,20.21-13.44,5.45-8.57,8.04-19.73,7.32-31.44-.37-5.97-1.59-11.7-3.55-16.91-.13.08-.26.16-.39.24-8.17,24.01-18.94,47.46-27.1,61.48Z"/>
        <path class="cls-26" d="M705.75,378.8c-.57,5.87-1.56,11.47-2.93,16.83-.03.13-.06.26-.09.39-.02.07-.04.14-.06.22-.29,1.12-.6,2.23-.93,3.33.05.29.1.57.16.85,1.06,1.89,2.12,3.71,3.19,5.47.17-.22.33-.45.51-.67,2.31-2.81,5.36-4.88,8.65-6.39,7.39-3.39,15.93-4.12,23.95-3.64,7.38.45,15.19,1.91,21.75,5.48,4.79,2.61,9.16,6.05,12.61,10.29,3.19,3.92,5.49,8.49,7.06,13.28,1.67,5.07,2.59,10.37,3.22,15.66.66,5.59,2.29,10.82,4.97,15.77,2.45,4.53,5.54,8.67,8.27,13.03,3.05,4.88,5.43,10.03,6.73,15.66,2.98,12.88-1.08,25.44-4.47,37.79-1.72,6.25-3.35,12.67-3.71,19.16-.07,1.29-.07,2.61-.04,3.94,2.21,2.44,4.09,5.19,5.54,8.19l6.52-.59s3.37.78,3.94,7.04c.57,6.26-2.6,7.64-2.6,7.64l-3.42.31.04.27-1.05.06c0,.09,0,.18,0,.28v13.72c0,5.6-1.35,10.88-3.72,15.56,4.87,25.68,4.09,60.21-14.52,96.39-1.99,3.88-4.43,7.15-7.23,9.88,2.74,6.51,4.43,13.76,4.9,21.33.83,13.31-2.19,26.1-8.49,36.02-6.55,10.31-15.85,16.34-26.2,16.98-.59.04-1.19.06-1.78.06-2.24,0-4.44-.28-6.59-.78-1.36,1.97-2.59,3.51-3.63,4.56-.63.63-1.26,1.25-1.89,1.86-.52,4.5-.61,9,.51,13.42,1.25,4.95,4.01,9.09,7.24,12.96,3.33,3.99,6.5,8.15,9.02,12.71,5.39,9.74,7.02,21.48,4.64,32.36-2.47,11.31-9.04,21.16-12.12,32.27-2.59,9.34-2.1,19.44,1.13,28.57.87,2.48,1.94,4.84,3.13,7.13,10.85,5.88,19.74,14.37,25.8,25.91,5.84,1.75,12.49,3.81,20.17,6.29,2.44.79,4.9,1.61,7.37,2.43-2.62-7.67-6.3-14.92-10.06-22.42-3.52-7.02-6.7-14.45-7.59-22.31-.86-7.59.59-14.47,3.02-21.64,5.25-15.49,12.93-30.87,12.03-47.2-.8-14.42-8.24-27.57-16.24-39.59,12.23,13.17,25.03,27.46,27.82,45.22,3.41,21.68-8.95,42.83-9.55,64.77-.44,15.92,5.56,31.75,15.63,44.09,1.72,2.11,3.58,4.17,5.5,6.2,29.29,10.55,57.91,22.7,78.81,35.24-8.12-25.77-38.88-39.77-58.3-53.77-26.71-19.26-10.51-43.78,10.95-86.69,21.45-42.91-36.34-28.9-49.16-89.31-12.82-60.42,56.6-68.74,45.65-98.51-10.95-29.77,7-52.97,10.51-75.3,3.5-22.33-44.22-86.69-24.95-110.33,13.51-16.58,25.92-42.83,26.71-65.95-9.04-25.81-33.7-59.55-73.91-68.33-48.96-10.7-72.65,1.93-82.02,18.95,0,2.49-.12,5.03-.37,7.62Z"/>
        <path class="cls-19" d="M860.3,596.83c-3.5,22.33-21.45,45.53-10.51,75.3,10.95,29.77-58.47,38.09-45.65,98.51,12.82,60.42,70.61,46.41,49.16,89.31-21.45,42.91-37.65,67.42-10.95,86.69,19.42,14.01,50.18,28,58.3,53.77,9.91,5.95,18.1,11.98,23.78,17.98,5.42,5.73,11.07,13.65,16.77,23.3,4.58-5.18,8.46-10.98,11.41-17.22.49-1.03.95-2.08,1.39-3.13,5.12-12.35,6.8-25.96,5.5-39.23-1.13-11.52-4.26-27.58-11.91-36.75-14.01-16.8-38.6-17.04-56.21-28.49-12.7-8.27-13.05-17.28-9.01-28.27,4.06,2.03,8.44,3.42,12.94,4.02,4.11.54,8.36.45,12.3-.83,7.27-2.34,12.9-8.63,15.4-15.84,1.56-4.51,1.99-9.55.33-14.02-1.66-4.47-5.64-8.22-10.37-8.8,4.98,5.91,4.97,15.42-.01,21.32-2.89,3.42-7.5,5.62-11.9,4.75-4.29-.84-7.56-4.28-10.12-7.82-.13-.18-.25-.37-.38-.55,4.38-9.01,8.99-19.22,11.33-31.01,7.44-37.65-29.77-46.85-48.6-61.73-18.3-14.47-9.71-42.17,6.07-50.14,3.09,3.69,5.49,7.96,6.97,12.54,2.91,9,2.25,19.1-1.79,27.65,4.11-3.26,7.08-7.77,9.32-12.52,3.6-7.63,5.47-16.27,4.12-24.6-.63-3.88-2.01-7.66-4.05-11.02,14.5-9.94,28.03-26.17,15.7-42.16-16.2-21.01-21.01-44.22-10.07-59.54,10.95-15.32,21.45-33.71,0-59.1-21.45-25.39-28.9-37.65-28.9-63.48,0-12,14.98-25.83,15.32-55.16.06-5.4-1.26-12.35-3.94-19.98-.79,23.12-13.2,49.37-26.71,65.95-19.26,23.64,28.46,88,24.95,110.33Z"/>
        <path class="cls-27" d="M496.15,739.78c-.78,3.96-1.89,7.78-3.35,11.4-1.32,3.26-2.89,6.25-4.67,8.98-3.16,10.69-7.5,20.69-12.64,29.23-3.25,5.4-7.86,9.81-7.92,16.31-.11,13.65,7.27,28.56,13.56,40.34,2.27,4.26,4.51,8.52,6.64,12.83,7.19-20.62,21.36-71.1,8.38-119.08Z"/>
        <path class="cls-27" d="M760.27,448.2s20.23,32.41,20,83.62c-1.18-1.49-2.65-3.14-4.47-4.96-14.78-14.78-43.01-11-53.69-10.18-10.67.82-12.97,12.97-9.19,16.75,0,0,27.34-1.48,44.15.5h11.98c10.11,0,19.22,4.37,25.54,11.32-.02-1.33-.03-2.65.04-3.94.36-6.49,2-12.91,3.71-19.16,3.39-12.34,7.45-24.91,4.47-37.79-1.3-5.62-3.68-10.78-6.73-15.66-2.73-4.36-5.81-8.5-8.27-13.03-2.68-4.95-4.31-10.18-4.97-15.77-.63-5.29-1.55-10.59-3.22-15.66-1.57-4.79-3.87-9.36-7.06-13.28-3.45-4.24-7.82-7.67-12.61-10.29-6.56-3.57-14.36-5.04-21.75-5.48-8.03-.48-16.57.25-23.95,3.64-3.29,1.51-6.33,3.59-8.65,6.39-.18.22-.34.44-.51.67,14.8,24.3,30.71,35.59,55.17,42.31Z"/>
        <path class="cls-27" d="M743.7,887.72c3.08-11.11,9.65-20.96,12.12-32.27,2.37-10.88.74-22.63-4.64-32.36-2.52-4.56-5.69-8.72-9.02-12.71-3.23-3.87-5.99-8.01-7.24-12.96-1.12-4.43-1.03-8.92-.51-13.42-5.78,5.61-11.74,10.15-24.9,12.27-.02,0-.05,0-.08,0-5.78.93-12.96,1.39-22.12,1.28-.6,8.75-1.42,23.09-1.71,40.03,0,.05,0,.09,0,.14-.39,22.82.18,50.31,3.47,75.22,22.03-1.3,42.64,1.69,58.88,10.48-1.19-2.29-2.25-4.66-3.13-7.13-3.22-9.13-3.72-19.23-1.13-28.57Z"/>
        <path class="cls-19" d="M800.71,914.88c.6-21.94,12.97-43.08,9.55-64.77-2.79-17.76-15.59-32.05-27.82-45.22,8,12.02,15.44,25.17,16.24,39.59.9,16.33-6.78,31.71-12.03,47.2-2.43,7.17-3.88,14.06-3.02,21.64.89,7.87,4.08,15.3,7.59,22.31,3.76,7.5,7.44,14.75,10.06,22.42,6.82,2.28,13.7,4.65,20.54,7.12-1.92-2.04-3.77-4.09-5.5-6.2-10.07-12.34-16.06-28.17-15.63-44.09Z"/>
        <path class="cls-12" d="M186.51,1036.56c1.17-.73,2.37-1.46,3.59-2.19,20.16-12.18,41.9-21.86,63.85-30.5-.02-.77-.01-1.49,0-2.17-1.35-6.21-3.97-13.03-8.78-20.47-23.02-35.68,5.06-50.51,20.61-70.72,8.21,8.55,13.4,19.24,14.33,32.36.56,7.87-.56,15.84.7,23.62,2.13,13.22,11.55,25.02,23.96,30.03-5.73-9.88-6.85-21.5-6.69-32.71.14-10.54,5.06-19.17,5.12-29.73.1-18.25-10.61-34.68-22.04-48.91-3.75-4.68-7.66-9.31-11.41-14.05-6.43-13.05-17.72-27.54-24.13-49.26-11.38-38.53,21.89-43.78,36.34-61.73,9.62-11.95,6.05-28.34,4.94-42.32-.45-5.62-1.04-12.07,1.8-17.21,3.98-7.21,14.09-10.15,20.98-13.8,22.68-12,22.2-33.83,13-55-3.89-8.95-5.04-19.64-5.04-29.28,0-35.46,58.01-28.46,29.99-63.48-22.38-27.98-32.74-43.39-32.21-60.5-10.35,20.43,7.8,38.52,7.8,58.97,0,23.32-41.04,21.45-37.42,51.44,3.61,29.99,28.56,42.79,6.56,64.79-21.99,22-40.06,9.2-41.69,34.14-1.65,24.96,15.75,33.82-5.26,54.84-21.01,21.01-41.69,29.23-35.46,54.84,6.24,25.62,25.28,39.73,20.02,57.8-5.25,18.06-49.24,17.72-36.11,54.84,0,0-10.13,10.51-2.44,35.79,7.69,25.27,10.87,40.2,4.64,59.89-3.59,11.35-13.07,24.23-18.89,38,.12-.11.23-.23.35-.34,2.87-2.69,5.88-5.02,9.02-6.98Z"/>
        <path class="cls-3" d="M347.62,539.04c28.02,35.02-29.99,28.02-29.99,63.48,0,9.64,1.15,20.33,5.04,29.28,9.21,21.18,9.69,43.01-13,55-6.89,3.65-17,6.59-20.98,13.8-2.84,5.13-2.25,11.59-1.8,17.21,1.12,13.98,4.69,30.36-4.94,42.32-14.45,17.95-47.72,23.2-36.34,61.73,6.42,21.72,17.7,36.2,24.13,49.26,3.76,4.73,7.66,9.37,11.41,14.05,11.42,14.23,22.14,30.67,22.04,48.91-.06,10.56-4.97,19.19-5.12,29.73-.15,11.2.96,22.83,6.69,32.71-12.41-5.02-21.83-16.82-23.96-30.03-1.26-7.79-.14-15.76-.7-23.62-.93-13.11-6.13-23.81-14.33-32.36-15.55,20.21-43.62,35.04-20.61,70.72,4.81,7.45,7.43,14.26,8.78,20.47-.02.68-.02,1.4,0,2.17,0,.01,0,.02,0,.03-1.85,11.37-.88,20.27,1.68,27.04.81,2.15,1.79,4.09,2.88,5.81,6.58,10.38,17.55,13.34,24.48,11.05,7.78-2.57,15.62-8.33,23.33-5.56,5.66,2.03,8.76,7.95,11.65,13.23,12.24,22.33,30.71,41.91,54.17,51.82,23.45,9.91,52.09,9.03,72.97-5.55,6.43-4.49,11.87-10.33,15.93-17.04,3.67-6.06,6.18-12.77,7.49-19.71,1.02-5.41,1.32-10.96.86-16.46-.9-10.76-6.11-18.01-9.46-27.6-3.26-9.35,1.37-21.87,5.32-30.45,1.62-3.53,3.67-6.92,5.9-10.24,1.19-1.77,2.44-3.52,3.72-5.25,3.28-4.45,6.71-8.81,9.76-13.22.95-1.37,1.9-2.75,2.84-4.14,2.1-3.11,4.14-6.26,5.98-9.52,1.09-1.94,2.12-3.92,3.04-5.96,7.44-16.58,7.33-35.8,2.86-53.41-2.66-10.49-6.84-20.31-11.58-29.91-2.13-4.31-4.37-8.57-6.64-12.83-6.28-11.78-13.67-26.69-13.56-40.34.05-6.49,4.66-10.91,7.92-16.31,5.14-8.54,9.48-18.54,12.64-29.23-5.7,8.74-13.61,14.65-22.94,16.96-2.84.7-5.72,1.05-8.61,1.05-5.54,0-11.1-1.28-16.5-3.78-3.67,5.87-8.26,11.2-13.42,15.58-9.45,8.02-20.65,13.95-29.28,22.85-3.31,3.42-6.29,7.42-7.22,12.08-2.5,12.49,9.67,22.41,19.43,30.61,10.24,8.59,19.24,18.65,26.64,29.78,7.63,11.47,13.69,25.85,8.86,38.75-5.15,13.79-21.1,21.33-26.08,35.18-6.74,18.74,4.19,41.96,11.05,59.85,13,33.91,7.99,82-32.93,75.51-21.39-3.4-43.92-15.73-48.91-36.8,12.17,13.42,42.95,31.81,59.9,16.82,10.4-9.2,8.65-27.4,5.38-39.43-3.95-14.58-11.65-27.82-18.26-41.29-7.25-14.76-12.84-32.96-4.28-47,4.99-8.19,14.05-13.4,18.51-21.89,7.13-13.61-.19-30.76-11.25-41.43-11.06-10.66-25.38-17.31-37.1-27.24-10.28-8.71-18.42-19.91-23.53-32.37-2.76-6.74-4.58-14.64-1.25-21.12,1.92-3.73,5.3-6.46,8.67-8.95,10.94-8.09,22.85-14.87,35.39-20.15,5.93-2.5,12.13-4.74,17.01-8.94,4.87-4.2,8.19-10.97,6.28-17.11-1.57-5.04-6.13-8.46-9.29-12.68-5.81-7.76-6.75-18.33-4.72-27.82.4-1.87.91-3.7,1.49-5.51-3.85-4.89-7.05-10.07-9.68-15.49-.21.94-.43,1.87-.69,2.78-2.2,7.78-6.63,14.92-12.62,20.35-6.59,5.97-15.11,10.04-19.95,17.49-8.38,12.9-2.85,31.24-10.86,44.38-8.42,13.81-28.99,17.24-35.65,31.99-2.1,4.66-2.49,9.9-2.42,15.01.12,8.57,1.45,17.13,3.93,25.34-6.62-7.63-13.5-15.77-15.29-25.71-2.05-11.37,2.99-22.79,9.05-32.62,6.07-9.83,13.39-19.15,16.72-30.2,4.11-13.61,2.09-29.51,10.63-40.88,7.81-10.41,22.55-14.06,29.68-24.94,8.23-12.56,3.24-29.19,4.8-44.12.64-6.16,2.56-12.15,5.47-17.61,0-.57,0-1.14.02-1.7,0-.14.01-.28.02-.42.03-.84.07-1.68.12-2.51,0-.06.01-.13.02-.19.06-.94.15-1.86.24-2.78,0-.04,0-.08.01-.12.09-.86.2-1.72.32-2.57,0-.02,0-.04,0-.06,0,0,0,0,0,0,1.73-11.98,6.31-22.32,12.82-29.77,2.29-5.14,5.02-9.92,8.17-14.29,5.14-7.58,11.42-13.72,18.53-18-3.53-87.34,15.58-152.78,31.51-182.7-.59.56-1.18,1.12-1.75,1.68-20.14,5.25-40.18,13.47-49.69,26.26-9.53,12.81.08,34.22-13.8,50.9-21.01,25.28-43.34,9.89-52.54,22.66-1.15,1.59-2.08,3.16-2.87,4.73-.53,17.12,9.83,32.53,32.21,60.5ZM325.78,865.24c7.13,3.2,14.7,6.77,18.75,13.46,5.36,8.85,3.04,20.68,7.94,29.81,5.28,9.84,17.94,14.65,21.56,25.21,1.85,5.4.9,11.43-1.29,16.69-2.19,5.27-5.55,9.95-8.7,14.71-7.05,10.65-13.33,22.32-14.54,35.03-1.21,12.72,3.66,26.7,14.64,33.23,5.94,3.53,14.31,4.29,19.25-.53,3.56-3.47,4.44-8.95,3.72-13.87-.71-4.8-2.77-9.39-5.89-13.11,7.5,4.17,13.59,11.17,15.74,19.47,2.15,8.3-.01,17.82-6.22,23.74-1.34,1.28-2.89,2.41-4.68,2.93-3.09.89-6.37-.18-9.37-1.35-14.18-5.55-27.32-13.78-38.49-24.13-2.67-2.47-5.28-5.13-6.85-8.41-2.33-4.88-2.12-10.58-1.29-15.93,1.3-8.47,3.98-16.66,5.87-25.02,4.52-19.98,4.33-40.96-.22-60.92-1.75-7.67-3.39-16.24-5.81-23.63-2.62-7.97-11.04-14.83-16.95-20.39-4.1-3.86-8.14-7.78-12.12-11.77-2.98-2.98-7.26-9.68-11.03-11.37,12,5.38,23.99,10.77,35.99,16.15Z"/>
        <path class="cls-3" d="M701.04,401.78l.04-.07c.23-.71.45-1.43.67-2.15.33-1.1.64-2.21.93-3.33-.49,1.88-1.05,3.72-1.63,5.54Z"/>
        <path class="cls-3" d="M467,366.04c-14.66,27.14-21.48,80.66-13.44,181.58,4.24,1.78,8.4,4.25,12.36,7.51,1.9,1.56,3.71,3.16,5.43,4.86l33.34-4.48c4.4-7.15,8.16-14.98,10.17-23.05,7.45-29.77,0-49.9,16.2-57.35.39-.18.79-.34,1.18-.5-3.24.22-6.44.76-9.56,1.7-7.96,2.41-14.85,7.15-21.06,12.56-5.1,4.45-9.82,9.3-14.71,13.96,4.63-5.85,8.91-11.97,12.43-18.55,4.55-8.51,7.66-17.7,8.79-27.3.67-5.71.62-11.47.06-17.18,14.31-1.14,28.79,1.49,42.99-1.22,7.31-1.4,13.92-4.42,20.32-8.14,5.77-3.36,11.23-7.24,16.36-11.52,5.58-4.66,10.73-9.8,15.62-15.17,1.48,6.57-.18,13.4-2.67,19.54-2.88,7.11-6.98,13.69-11.22,20.06-2.13,3.2-4.33,6.35-6.47,9.55-.27.4.09.98.56.97,12.5-.35,24.71-3.82,36.04-8.99,11.79-5.38,22.71-12.62,32.6-20.96,4.83-4.07,9.42-8.43,13.73-13.06,3.92-4.21,7.73-8.62,10.86-13.45,6.26-9.66,10.11-20.87,11.68-32.25,1.56-11.27.96-22.98-2.59-33.83-.17-.53-.39-1.04-.57-1.57,10.42,9.7,16.53,23.02,18.83,37.01,0,.05.02.1.02.15,1.55,9.54.93,19.32-1.45,28.69,1.37-5.35,2.36-10.96,2.93-16.83.25-2.59.37-5.13.37-7.62.04-76.09-113.76-102.68-206.61-35.27l-4.57,2.15c-6.69,3.57-19.3,11.99-27.94,27.98ZM532.04,356.81c12.62-7.68,19.55-20.92,30.54-30.31,8.13-6.95,18.25-11.67,28.74-13.67,4.82-.92,9.73-1.02,14.62-.87,3.66.11,14.32,3.31,17.18,2.08-13.19,5.68-26,12.25-38.31,19.66,14.05-.5,28.14.15,42.08,1.95-17.76,3.06-36.1,6.33-51.12,16.29-7.84,5.19-14.47,12.03-22.27,17.28-13.29,8.94-29.35,12.88-45.26,14.68-8.61.97-17.32,1.38-25.72,3.47-8.4,2.09-16.66,6.09-22,12.91,7.07-13.33,18.9-24.08,32.85-29.84,12.67-5.23,26.97-6.5,38.67-13.62Z"/>
        <path class="cls-3" d="M483.19,576.87c.57,1.23,1.13,2.52,1.67,3.87,1.34-1.4,2.79-2.95,4.3-4.64l-5.97.78Z"/>
        <path class="cls-31" d="M559.63,471.58c64.28,1.25,99.43-19.08,114.54-31.33,0,0,.02-.02.03-.03.78-.8,1.54-1.62,2.31-2.45h0c8.82-9.56,17.11-21.39,24.53-35.99.59-1.82,1.14-3.66,1.63-5.54.02-.07.04-.14.06-.22.03-.13.06-.26.09-.39,2.38-9.37,3-19.15,1.45-28.69,0-.05-.02-.1-.02-.15-2.3-13.99-8.4-27.31-18.83-37.01.19.52.4,1.04.57,1.57,3.56,10.85,4.15,22.57,2.59,33.83-1.57,11.37-5.43,22.58-11.68,32.25-3.13,4.84-6.94,9.24-10.86,13.45-4.3,4.63-8.9,8.99-13.73,13.06-9.89,8.34-20.82,15.58-32.6,20.96-11.33,5.17-23.54,8.64-36.04,8.99-.47.01-.83-.56-.56-.97,2.14-3.2,4.34-6.35,6.47-9.55,4.24-6.37,8.35-12.94,11.22-20.06,2.48-6.14,4.14-12.97,2.67-19.54-4.89,5.37-10.04,10.51-15.62,15.17-5.12,4.28-10.58,8.16-16.36,11.52-6.39,3.72-13.01,6.75-20.32,8.14-14.2,2.71-28.68.08-42.99,1.22.57,5.71.61,11.48-.06,17.18-1.13,9.6-4.24,18.79-8.79,27.3-3.52,6.58-7.8,12.7-12.43,18.55,4.89-4.66,9.61-9.52,14.71-13.96,6.21-5.41,13.11-10.15,21.06-12.56,3.12-.94,6.32-1.48,9.56-1.7,8.55-3.52,18.33-3.22,27.38-3.04Z"/>
        <path class="cls-6" d="M715.14,937.4l-1.52-.16v.04c-6.16,23.78-21.47,45.61-43.11,61.49-23.79,17.45-51.61,24.89-79.81,24.89-42.29,0-85.44-16.73-117.16-41.49h0c-.8-.62-1.58-1.26-2.37-1.9-2.24,3.31-4.28,6.71-5.9,10.24-3.95,8.59-8.58,21.1-5.32,30.45,3.34,9.59,8.56,16.84,9.46,27.6.46,5.49.16,11.05-.86,16.46,1.66,6.68,2.34,13.57,1.79,20.43-1.22,15.38-9,30.48-21.86,39.01-7.27,4.83-15.79,7.43-24.32,9.27-19.69,4.25-39.98,4.78-60.12,5.06-4.41.06-9.03.16-12.91,2.26-10.18,5.51-12.02,23.63-13.42,33.86-1.59,11.62-2.21,23.34-2.12,35.07.11,12.81,1.59,25.59,3.7,38.22.51,3.03,1,6.07,1.64,9.08.64,3.01,1.7,5.97,2.73,8.86.22.6.44,1.2.67,1.8h168.27s156.7-99.76,202.55-330.56Z"/>
        <path class="cls-6" d="M830.94,1120.61c-14.27-23.65-14.25-54.42-16.75-82.67-.6-6.84-1.21-13.7-1.95-20.53-.85-7.8-1.87-15.56-3.29-23.24-2.91-15.77-7.61-25.59-15.03-38.54-7.69-2.47-14.33-4.54-20.17-6.29.24.46.49.91.72,1.37,4.23,8.55-12.46,81.8-41.93,160.14l9.96,2.85-2.12,7.42-10.59-3.03c-21.27,55.26-48.73,112.12-79.57,149.87h222.29c.38-5.51,6.4-67.84-41.58-147.35Z"/>
        <path class="cls-6" d="M190.1,1034.37c-1.22.73-2.42,1.46-3.59,2.19,1.19-.74,2.39-1.47,3.59-2.19Z"/>
        <path class="cls-13" d="M1011.74,1267.95c-9.68-79.3-40.92-176.14-70.55-226.26-5.71-9.65-11.35-17.58-16.77-23.3-5.68-6-13.87-12.03-23.78-17.98-20.9-12.54-49.52-24.69-78.81-35.24-6.84-2.47-13.72-4.84-20.54-7.12-2.46-.82-4.92-1.63-7.37-2.43,7.42,12.96,12.12,22.78,15.03,38.54,1.41,7.67,2.44,15.44,3.29,23.24.74,6.83,1.34,13.68,1.95,20.53,2.49,28.26,2.48,59.03,16.75,82.67,47.98,79.51,41.96,141.84,41.58,147.35,0,.03,0,.07,0,.1.57-.04,1.14-.06,1.71-.1,11.53-.74,105.67,0,137.53,0Z"/>
        <path class="cls-13" d="M666.55,963.32c-7.59,4.83-15.58,8.88-23.94,12.21-8.94,3.56-18.2,6.71-27.56,8.96-19.78,4.76-40.38,4.9-60.37,1.36-.13-.02-.25-.05-.38-.07h0c-9.86-1.77-19.57-4.38-29.05-7.6-8.26-2.81-16.27-6.15-23.8-10.58-4.96-2.92-9.62-6.25-13.99-9.93-.94,1.39-1.89,2.76-2.84,4.14-3.04,4.41-6.48,8.77-9.76,13.22.87.7,1.74,1.4,2.61,2.08h0c50.96,39.79,132.32,58.22,189.21,16.48,20.18-14.81,34.51-35.03,40.44-57.03l-14.2-1.48c-1.83,5.09-5.3,9.69-8.85,13.59-5.12,5.64-11.12,10.56-17.55,14.65Z"/>
        <path class="cls-18" d="M666.7,993.59c-56.9,41.74-138.25,23.3-189.21-16.49h0c-.88-.68-1.75-1.38-2.61-2.08-1.28,1.73-2.52,3.48-3.72,5.25.79.64,1.58,1.28,2.37,1.9h0c31.72,24.76,74.87,41.49,117.16,41.49,28.2,0,56.02-7.44,79.81-24.89,21.64-15.88,36.95-37.72,43.1-61.49v-.04s-6.46-.68-6.46-.68c-5.93,22-20.26,42.22-40.44,57.03Z"/>
        <path class="cls-17" d="M340.92,1257.29c-.64-3-1.13-6.05-1.64-9.08-2.12-12.63-3.6-25.4-3.7-38.22-.1-11.73.53-23.44,2.12-35.07,1.4-10.23,3.24-28.35,13.42-33.86,3.88-2.1,8.5-2.2,12.91-2.26,20.14-.28,40.43-.8,60.12-5.06,8.53-1.84,17.05-4.44,24.32-9.27,12.86-8.53,20.64-23.63,21.86-39.01.55-6.87-.13-13.76-1.79-20.43-1.31,6.94-3.83,13.65-7.49,19.71-4.06,6.71-9.5,12.55-15.93,17.04-20.88,14.57-49.52,15.46-72.97,5.55-23.45-9.91-41.93-29.49-54.17-51.82-2.89-5.28-5.98-11.2-11.65-13.23-7.71-2.77-15.55,2.99-23.33,5.56-6.93,2.29-17.9-.68-24.48-11.05-75.89,32.89-75.6,125.16-75.31,214.61.02,5.54.04,11.07.04,16.57h161.08c-.22-.6-.45-1.2-.67-1.8-1.03-2.89-2.09-5.85-2.73-8.86Z"/>
        <path class="cls-17" d="M255.63,1030.95c-2.56-6.77-3.53-15.68-1.68-27.04,0-.01,0-.02,0-.03-21.95,8.64-43.68,18.32-63.85,30.5-1.2.72-2.4,1.45-3.59,2.19-3.14,1.97-6.15,4.3-9.02,6.98-.12.11-.23.23-.35.34-54.6,51.47-62.88,224.07-62.88,224.07h62.53c0-5.5-.02-11.02-.04-16.55-.3-91.63-.6-186.14,78.86-220.45Z"/>
        <path class="cls-28" d="M776.45,585.84c2.38,2.38,10.34,4.93,10.34,4.93-4.15.47-8.69-.49-12.94-2.01.03,1.25.09,2.46.19,3.59.56,6.08,2.44,11.74,4.41,18.26,9.59-3.18,17.05-11.07,19.61-20.93-1.21-4.82-2.6-9.24-4.07-13.2-4.07,6.71-17.55,9.36-17.55,9.36Z"/>
        <path class="cls-28" d="M779.73,614.96c.22.77.43,1.56.63,2.36.18.66.35,1.31.51,1.99.36,1.44.71,2.94,1.02,4.51,2.13,10.55,3.16,23.93.36,43.06-1.4,9.61-3.96,20.18-7.21,30.93,1.12,1.97,2.14,4.03,3.04,6.17,2.79-2.72,5.23-6,7.23-9.88,18.6-36.18,19.38-70.71,14.52-96.39-4.12,8.11-11.34,14.39-20.1,17.24Z"/>
        <path class="cls-28" d="M771.8,708.86c-.05-.14-.11-.28-.16-.42-.07.22-.15.44-.22.66.13-.08.26-.16.39-.24Z"/>
        <path class="cls-28" d="M774.27,577.27c5.62.41,11.76-.41,19.01-2.69-.79-2.03-1.61-3.93-2.42-5.68l-15.8.93c-.31,2.48-.58,4.98-.79,7.45Z"/>
        <path class="cls-28" d="M781.57,554.92c-1.17-.96-2.4-1.84-3.71-2.63-.18.93-.36,1.92-.54,2.94l4.25-.3Z"/>
        <path class="cls-13" d="M258.51,1036.77c-1.1-1.73-2.07-3.66-2.88-5.81-79.46,34.31-79.16,128.82-78.86,220.45.02,5.53.04,11.05.04,16.55,0,.03,0,.07,0,.1h6.43s0-.07,0-.1c0-5.51-.02-11.04-.04-16.57-.29-89.46-.58-181.72,75.31-214.61Z"/>
        <path class="cls-14" d="M771.64,708.45c.05.14.11.28.16.42,1.96,5.22,3.18,10.94,3.55,16.91.73,11.71-1.87,22.87-7.32,31.44-5.2,8.18-12.38,12.96-20.21,13.44-1.18.07-2.35.04-3.51-.08-1.57,2.7-3.05,5.06-4.39,7,2.15.5,4.36.78,6.59.78.59,0,1.19-.02,1.78-.06,10.34-.64,19.65-6.67,26.2-16.98,6.31-9.92,9.32-22.71,8.49-36.02-.47-7.57-2.16-14.81-4.9-21.33-.9-2.14-1.92-4.2-3.04-6.17-1.07,3.54-2.21,7.09-3.41,10.64Z"/>
        <path class="cls-30" d="M701.81,400.27s0,0,0,0c-.24.49-.49.96-.73,1.44l-.04.07c-7.42,14.6-15.71,26.43-24.53,35.99-.77.83-1.54,1.65-2.31,2.45,0,0,0,0,0,0-.58,2.94-1.1,5.86-1.58,8.76-7.97,47.8-3.74,90.36,6.28,115.3,5.47-.78,12.16-1.07,18.15.53,1.81-17.34,16.51-30.9,34.32-30.9h25.7c-16.82-1.97-44.15-.5-44.15-.5-3.78-3.78-1.48-15.93,9.19-16.75,10.67-.82,38.91-4.6,53.69,10.18,1.82,1.82,3.29,3.46,4.47,4.96.23-51.21-20-83.62-20-83.62-24.46-6.73-40.37-18.01-55.17-42.31-1.07-1.76-2.13-3.57-3.19-5.47-.03-.05-.06-.1-.08-.15,0,0,0,0,0,0Z"/>
        <path class="cls-30" d="M771.42,709.1c.07-.22.15-.44.22-.66,1.2-3.55,2.34-7.1,3.41-10.64,3.24-10.75,5.8-21.32,7.21-30.93,2.8-19.12,1.77-32.51-.36-43.06-.31-1.57-.66-3.07-1.02-4.51-.17-.68-.33-1.34-.51-1.99-3.55,1.25-7.34,1.92-11.32,1.92h-34.45c-3.85,0-7.56-.58-11.07-1.66-.14-.12-.27-.25-.41-.37-1.52-1.35-2.95-2.69-4.29-4.01-14.66-14.38-19.28-27.03-21.96-40.79,0,0,0,0,0,0v-1.4s0-.02,0-.03v-1.49c-5.06-1.6-11-1.49-16.07-.86.11.24.22.5.34.73,0,0,.02.04.03.07.17.35,1.47,3.11,3.43,7.19,6.04,12.59,18.17,37.62,21.49,42.33,4.21,5.94,11.54,19.61,27.06,15.03-.73,12.39-6.41,17.87-18.02,18.78-4.79.38-11.03,1.61-15.66,2.88-.44.12-.87.26-1.3.4-1.99,6.89-3.92,16.23-.31,28.19.06,0,.12,0,.19,0,1.96.17,3.72,1.22,5.59,1.85,1.48.5,3.05.73,4.62.71-.13-.49-.25-.97-.4-1.45-.96-3.22-2.39-6.6-2.34-9.64,0-.22.02-.45.09-.59.1-.21.3-.19.49-.11.91.38,1.78,1.82,2.56,3.18,2.43,4.21,3.59,6.03,7.29,7.3,0,0,0,0,0,0,.19-.01.37-.03.56-.03,5.04-.02,8.35,4.46,11.11,8.07,1.78,2.32,3.4,3.63,6.36,4.22,1.1.22,2.23.24,3.36.24.48,0,1.01.02,1.37.34.61.54.33,1.58-.25,2.15-.01.01-.03.02-.04.03.25.22.36.52.25.95-.03.12-.07.23-.12.33-.17.4-.45.74-.71,1.08-.86,1.14-1.6,2.41-2.39,3.58-.42.62-.72,1.35-1.02,2.04-.77,1.78-1.45,3.59-2.3,5.34-1.48,3.04-3.53,5.96-6.67,7.44-.82.39-1.79.84-2.88,1.31.55.97.81,2.06.59,3.16-.31,1.56-1.5,2.8-2.76,3.77-7.66,5.91-18.81,4.88-27.09,9.89-6.31,3.82-9.12,9.49-9.59,15.63-.17.1-.3.26-.3.52.03,10.72,4.17,21.11,11.14,29.21,4.13,4.8,9.25,8.76,14.96,11.51-.02,0-.05,0-.07.01.02,0,.05,0,.08,0,13.16-2.12,19.12-6.66,24.9-12.27.63-.61,1.26-1.23,1.89-1.86,1.05-1.05,2.27-2.59,3.63-4.56,1.34-1.94,2.82-4.29,4.39-7,8.16-14.02,18.92-37.47,27.1-61.48Z"/>
        <path class="cls-30" d="M773.86,588.76c-.88-.31-1.74-.65-2.59-1-1.21,1.83-2.8,3.65-4.81,4.63-.89.43-1.84.74-2.81.96,1.36.31,2.68.72,3.94,1.31,2.55,1.19,4.84,3.18,5.87,5.8-.68.42-1.49-.24-2.07-.8-1.97-1.9-4.53-3.09-7.16-3.82-.86-.22-1.72-.42-2.59-.58-.61-.11-1.5-.45-2.11-.39,1.23,1.84,2.11,3.71,2.1,5.99-.83-1.52-1.99-2.85-3.29-3.99-.49-.43-1.01-.84-1.59-1.16-.93-.51-1.98-.76-3.01-1.01.96,1.03,1.33,1.9,1.84,3.1.87,2.04.19,3.98.33,4.16-.96-1.29-1.92-2.59-2.87-3.88-1.13-1.53-2.5-3.23-4.56-3.32.39,2.12.2,4.34-.55,6.36-.13.36-.29.73-.59.97-.22-1.75-.78-3.45-1.64-4.99-.41-.74-.89-1.58-1.49-2.18-.54-.53-1.37-.35-2.02.02-1.07.62-1.58,1.86-1.93,3.04-.39,1.35-.65,2.74-.76,4.14-1.65-1.82-1.32-4.64-.81-7.05-2.35.05-4.1,2.11-5.51,3.98-.72-1.23-.81-2.81-.22-4.11-3.22-.31-6.42-.19-9.64-.31.39-.45.89-.79,1.43-1.06-.8-.12-1.59-.26-2.38-.43-3.18-.7-6.25-1.88-9.08-3.49-1.1-.62-2.03-1.49-2.77-2.5-.48.2-.98.39-1.5.59-3.17,1.22-5.11,1.04-6.3.44,4.03,13.81,16.79,23.93,31.88,23.93h34.45c3.29,0,6.45-.54,9.41-1.52-1.97-6.52-3.84-12.18-4.41-18.26-.11-1.13-.16-2.35-.19-3.59Z"/>
        <path class="cls-28" d="M525.26,978.17c9.48,3.22,19.19,5.83,29.05,7.6-2.85-8.29-7.7-18.14-5.4-26.35,2.16-7.71,14.23-14.41,19.89-19.43,8.8-7.8,17.59-15.62,26.39-23.43,17.6-15.6,35.27-31.13,53.34-46.19,7.66-6.38,14.63-13.51,21.95-20.27,4.78-4.41,9.75-8.78,15.12-12.53,0,.05,0,.09,0,.14,0-.05,0-.09,0-.14.29-16.94,1.11-31.28,1.71-40.03-5.9-.07-12.6-.38-20.3-.96-29.06-2.2-65.96-17.04-93.64-30.96.16,3.79.61,7.58,1.6,11.24,1.18,4.36,3.02,8.51,5.17,12.47,4.34,7.98,9.96,15.28,13.47,23.7,3.53,8.46,4.51,18.54,2.59,27.53-1.3,6.08-4.59,11.03-10.17,13.9-5.5,2.83-11.88,3.76-17.9,4.85-7.21,1.3-14.78,2.48-21.56,5.37-5.98,2.55-10,7.56-12.36,13.5-5.61,14.12-3.62,30-7.95,44.46-2.6,8.68-8.41,15.65-16.34,20.04-4.02,2.23-8.62,4.25-13.19,4.96-1.1.17-2.2.32-3.31.47-1.84,3.26-3.87,6.41-5.98,9.52,4.37,3.68,9.03,7.01,13.99,9.93,7.53,4.43,15.54,7.77,23.8,10.58Z"/>
        <path class="cls-22" d="M509.94,942.71c7.92-4.39,13.74-11.36,16.34-20.04,4.33-14.46,2.34-30.34,7.95-44.46,2.36-5.94,6.37-10.95,12.36-13.5,6.78-2.89,14.35-4.07,21.56-5.37,6.02-1.09,12.4-2.02,17.9-4.85,5.58-2.87,8.88-7.83,10.17-13.9,1.92-9,.94-19.07-2.59-27.53-3.51-8.42-9.14-15.72-13.47-23.7-2.15-3.96-4-8.11-5.17-12.47-.99-3.67-1.44-7.45-1.6-11.24-.9-.45-1.78-.9-2.66-1.35,0,0,0,0,0,0-.01,0-.03-.01-.04-.02-.72-.37-1.44-.74-2.15-1.11-.11-.05-.21-.11-.31-.17-17.28-8.99-30.17-17.23-33.86-20.91-9.68-9.68-19.03-35.36-22.03-49.15-3.02-13.88-10.26-35.44-17.45-55.33,1.18,18.22,1.22,38.49-4.26,56.25,1.81,4.11,3.33,8.48,4.47,13.07,2.77,11.2,3.1,22.51,1.08,32.86,12.98,47.98-1.19,98.46-8.38,119.08,4.74,9.6,8.92,19.42,11.58,29.91,4.47,17.61,4.57,36.83-2.86,53.41-.91,2.04-1.94,4.02-3.04,5.96,1.11-.15,2.21-.3,3.31-.47,4.57-.71,9.16-2.74,13.19-4.96Z"/>
        <path class="cls-25" d="M685.59,837.73s0-.09,0-.14c-5.37,3.75-10.34,8.11-15.12,12.53-7.32,6.76-14.29,13.88-21.95,20.27-18.07,15.06-35.74,30.59-53.34,46.19-8.8,7.8-17.58,15.63-26.39,23.43-5.67,5.02-17.73,11.72-19.89,19.43-2.3,8.21,2.55,18.06,5.4,26.35h0c.13.02.25.05.38.07,19.99,3.54,40.59,3.4,60.37-1.36,9.36-2.25,18.62-5.4,27.56-8.96,8.36-3.33,16.35-7.38,23.94-12.21,6.43-4.09,12.43-9,17.55-14.65,3.54-3.9,7.01-8.5,8.85-13.59l-1.25-5.35c-.92-3.95-1.62-7.96-2.08-11.99l-.55-4.8s0,0,0,0c-3.29-24.91-3.86-52.4-3.47-75.22Z"/>
        <path class="cls-5" d="M674.17,440.25s.02-.01.03-.02c0,0,0,0,0,0,0,0-.02.02-.03.03Z"/>
        <path class="cls-5" d="M676.51,437.77c-.77.83-1.54,1.65-2.31,2.45.78-.8,1.54-1.62,2.31-2.45h0Z"/>
        <path class="cls-5" d="M544.91,602.34c-.28.2-.56.4-.83.61,5.91,8.54,15.6,14.7,25.63,16.98-10.06-3.03-18.93-9.46-24.8-17.59Z"/>
        <path class="cls-5" d="M570.63,514.85c22.82-9.36,68.63-3.45,79.79,1.48,6.94,3.06,10.2,9.8,9.9,14.78,2.27,2.33,3.89,5.3,5.41,8.21,4.32,8.28,8.5,16.64,12.53,25.06.21-.03.43-.06.64-.09-10.02-24.93-14.25-67.5-6.28-115.3-2.97,8.83-9.88,13.25-20.13,19.24-13.18,7.7-28.61,10.51-43.79,12.14-15.18,1.62-30.56,2.2-45.35,5.96-7.41,1.88-14.82,4.68-20.45,9.86-6.52,6.01-9.28,14.81-6.93,23.4.77,2.82,2.13,5.58,4.36,7.53,1.61,1.4,3.53,2.27,5.56,2.74,4.78-4.68,12.6-10.03,24.73-15Z"/>
        <path class="cls-5" d="M655,602.69c-3.66.17-6.9-2.2-9.79-4.47-2.84-2.23-5.73-4.52-8.95-6.11-.23-.11-.47-.21-.7-.32.55.57,1.03,1.26,1.38,2.17-1.97-1.97-4.6-2.6-5.68-2.98-1.97-.69-4.49-.97-6.59-.64.12.69.36.92.51,1.62.2.96.14,2.01-.09,2.96-1.44-1.57-3.13-2.95-5.1-3.78-1.96-.83-4.22-1.06-6.24-.39-.41.13-.81.31-1.13.59-.29.25-.51.56-.71.88-.88,1.39-1.53,2.94-1.9,4.54-.66-1.72-1.16-3.51-1.48-5.33-1.87-.01-3.75-.02-5.62-.03-1,0-2.03,0-2.98.29-1.85.57-3.18,2.17-4.17,3.83-.94-1.4-1.14-3.26-.53-4.83-4.44.31-9.17.72-12.67,3.48.05-2.29,2.92-3.82,4.72-4.67,1.36-.64,2.77-1.12,4.22-1.48-2.78-.55-5.45-1.52-7.92-3.24-.67-.46-1.3-.98-1.84-1.59-.19.05-.38.11-.58.16-4.8,1.39-9.51,3.16-13.99,5.39-4.14,2.06-8.11,4.51-12.06,6.89-2.05,1.23-4.08,2.5-6.08,3.82,7.65,10.5,21.04,17.22,33.46,17.22h43.6c9.24,0,19.02-3.73,26.57-9.95,1.18-1.31,2.26-2.69,3.24-4.14-.3.04-.59.08-.88.09Z"/>
        <path class="cls-5" d="M681.12,569.36s.02.04.04.06c-.01-.03-.03-.07-.03-.07-.11-.24-.23-.49-.34-.73-.17.02-.33.04-.5.06.25.52.5,1.04.74,1.56.03-.3.07-.59.09-.89Z"/>
        <path class="cls-5" d="M694.54,784.76c-6.97-8.1-11.11-18.49-11.14-29.21,0-.26.13-.43.3-.52.47-6.14,3.28-11.82,9.59-15.63,8.28-5.01,19.42-3.98,27.09-9.89,1.26-.97,2.44-2.21,2.76-3.77.22-1.1-.04-2.19-.59-3.16-9.09,3.92-27.65,9.61-57.81-1-20.68-7.28-22.99-14.08-41.88-24.14,0,0-.01,0-.02,0,0,0-2.13-2.63,7.31-1.31,6.09.85,11.82-.12,17.83-.39,9.57-.42,18.69-3.34,27.93-5.51,5.63-1.33,11.19-2.99,16.66-4.88,1.1-.38,2.23-.78,3.38-.98.63-.11,1.26-.15,1.9-.12-3.61-11.96-1.69-21.3.31-28.19.43-.14.86-.28,1.3-.4,4.64-1.27,10.87-2.51,15.66-2.88,11.61-.91,17.29-6.39,18.02-18.78-15.52,4.58-22.86-9.09-27.06-15.03-3.32-4.72-15.45-29.74-21.49-42.33,4.71,13.42,2.76,30.24-.73,37.95-4.16,9.19-17.78,12.68-17.78,24.51s13.19,16.87,27.64,11.83c-.32.11-.67.49-.95.68-.89.59-1.82,1.12-2.77,1.6-2.86,1.44-6.51,2.9-9.76,2.87-1.76-.02-3.37-.12-5.08-.58-1.67-.45-3.31-1.03-4.87-1.78-3.03-1.46-5.72-3.6-7.51-6.47-1.82-2.91-2.88-6.3-3.03-9.72-.37-8.44,5.31-14.17,9.22-20.95.63-4.37.69-8.85-1.61-12.5-.6-.95-1.37-1.82-2.37-2.33-.24-.12-.48-.21-.72-.29-2.34,3.42-5.21,6.56-8.48,9.3-8.46,9.17-20.96,15.3-34.13,15.3h-43.6c-15.28,0-29.67-8.27-37.88-19.96-2.12,1.84-4.09,3.84-5.7,6.13-.14.21-.26.42-.39.62-.17.02-.33.11-.42.32-.14.32-.27.65-.4.98-2.62,4.57-3.4,9.46-3.63,14.74-.72,6.56-.46,13.28.35,19.72.73,5.81,1.99,11.53,3.68,17.13,1.83,6.06,4.38,11.87,6.8,17.71,2.4,5.76,4.68,11.61,6,17.72.68,3.15,1.09,6.35,1.15,9.58.06,3.2-.04,6.4-.09,9.6-.1,6.14-.02,12.4,1.77,18.33,1.83,6.08,5.52,11.22,9.84,15.79,3.5,3.7,7.43,6.91,11.58,9.82.88.45,1.76.9,2.66,1.35,27.68,13.92,64.58,28.76,93.64,30.96,7.7.58,14.41.89,20.3.96,9.15.11,16.33-.35,22.12-1.28.02,0,.05,0,.07-.01-5.7-2.74-10.83-6.71-14.96-11.51ZM689.02,645.94c-1.44-.06-2.88.05-4.29.34-.79.16-1.64.38-2.38.04-.22-.1-.39-.2-.52-.31-1.08-.89.92-1.84,1.62-2.25,1.42-.82,2.84-1.5,4.42-1.95,3.55-1.02,9.75-2.1,12.9.46.75.61,1.28,1.59,1.11,2.54-.16.85-.85,1.52-1.64,1.85-.79.33-1.68.38-2.54.35-2.92-.09-5.77-.95-8.69-1.08Z"/>
        <path class="cls-5" d="M622.84,697.42s.01,0,.02,0c1.58.7,3.23,1.07,4.9,1.27-1.69-.25-3.38-.6-4.92-1.28Z"/>
        <path class="cls-5" d="M568.52,763.16c.71.37,1.43.74,2.15,1.11-.83-.43-1.65-.85-2.46-1.28.1.06.21.11.31.17Z"/>
        <path class="cls-21" d="M512.32,692.92c3.01,13.8,12.35,39.47,22.03,49.15,3.69,3.69,16.57,11.92,33.86,20.91.82.42,1.63.85,2.46,1.28.01,0,.03.01.04.02,0,0,0,0,0,0-4.15-2.91-8.08-6.11-11.58-9.82-4.32-4.57-8.01-9.71-9.84-15.79-1.79-5.93-1.87-12.19-1.77-18.33.05-3.2.15-6.4.09-9.6-.06-3.23-.47-6.43-1.15-9.58-1.32-6.12-3.61-11.96-6-17.72-2.43-5.84-4.97-11.65-6.8-17.71-1.7-5.61-2.95-11.32-3.68-17.13-.82-6.45-1.07-13.16-.35-19.72.23-5.28,1.01-10.17,3.63-14.74.13-.33.26-.66.4-.98.09-.22.25-.31.42-.32.14-.21.25-.42.39-.62,1.62-2.29,3.59-4.29,5.7-6.13,8.21,11.69,22.6,19.96,37.88,19.96h43.6c13.16,0,25.66-6.13,34.13-15.3-8.12,6.79-18.69,11.1-29.72,11.1h-43.6c-4.37,0-8.66-.68-12.75-1.91-10.03-2.27-19.71-8.43-25.63-16.98.27-.21.55-.41.83-.61-4.63-6.41-7.4-13.87-7.4-21.59v-9.85l-6.99-.2-41.37,5.39c-1.51,1.69-2.96,3.25-4.3,4.64,4.55,11.43,7.75,27.28,9.61,51.22.14,1.85.27,3.74.4,5.64,7.19,19.89,14.43,41.45,17.45,55.33Z"/>
        <path class="cls-21" d="M667.35,604.06c2.3,3.65,2.24,8.12,1.61,12.5-3.91,6.78-9.59,12.51-9.22,20.95.15,3.43,1.21,6.82,3.03,9.72,1.79,2.87,4.48,5.01,7.51,6.47,1.56.75,3.2,1.33,4.87,1.78,1.7.46,3.32.57,5.08.58,3.25.03,6.89-1.43,9.76-2.87.95-.48,1.88-1.01,2.77-1.6.28-.19.64-.57.95-.68-14.45,5.03-27.64,0-27.64-11.83s13.63-15.31,17.78-24.51c3.49-7.72,5.44-24.53.73-37.95-1.95-4.08-3.26-6.83-3.43-7.19-.01-.02-.02-.04-.04-.06-.03.3-.06.59-.09.89-.24-.52-.49-1.04-.74-1.56-3.93.52-7.3,1.33-9.27,1.87v10.2c0,7.36-2.51,14.49-6.75,20.69.24.08.48.17.72.29,1,.51,1.77,1.38,2.37,2.33Z"/>
        <path class="cls-21" d="M660.32,531.12c-.18,3.03-1.68,5.41-4.48,5.9-.04-.01-.09-.03-.13-.04,8.59,6.94,14.33,17.26,15.19,28.91,1.86-.48,4.41-1.06,7.36-1.51-4.03-8.42-8.21-16.78-12.53-25.06-1.52-2.91-3.13-5.88-5.41-8.21Z"/>
        <path class="cls-21" d="M529.84,552.14c.7-.55,1.23-.72,1.23-.72l3.41.1h0l6.84.19c6.53-14.07,20.78-23.86,37.29-23.86h30.63c-20.16-1.83-37.77-.95-46.82,1.12-15.76,3.61-23.81,16.09-22.99,11,.38-2.38,2.25-5.99,6.46-10.12-2.04-.46-3.96-1.33-5.56-2.74-2.23-1.95-3.59-4.71-4.36-7.53-2.35-8.59.41-17.38,6.93-23.4,5.62-5.18,13.03-7.98,20.45-9.86,14.79-3.76,30.17-4.34,45.35-5.96,15.18-1.62,30.61-4.44,43.79-12.14,10.25-5.99,17.16-10.41,20.13-19.24.48-2.9,1-5.82,1.58-8.76,0,0-.02.01-.03.02-15.11,12.25-50.26,32.58-114.54,31.33-9.05-.18-18.82-.48-27.38,3.04-.4.16-.79.32-1.18.5-16.2,7.45-8.76,27.57-16.2,57.35-2.02,8.07-5.77,15.9-10.17,23.05l25.15-3.38Z"/>
        <path class="cls-3" d="M445.33,764.04c5.71,2.54,11.56,3.21,17.08,1.84,8.55-2.12,15.53-8.88,19.66-19.06,4.39-10.81,5.02-24,1.77-37.13-.02-.08-.04-.15-.06-.23-5.53,9.04-13.51,15.3-25.89,18.82-3.88,1.1-7.75,1.71-11.6,1.88,4.39,10.76,3.44,22.78-.96,33.88Z"/>
        <path class="cls-27" d="M803.55,568.15l1.05-.06-.04-.27-1.02.09c0,.08,0,.16,0,.24Z"/>
        <path class="cls-27" d="M794.49,554c.04-.41.08-.83.1-1.24-4.5-7.3-12.03-12.54-20.83-13.93,2.74,1.36,4.7,2.68,6.06,3.77,0,0,.02.01.03.02-.13.6-.38,1.73-.71,3.28-.27,1.25-.58,2.75-.91,4.48-.12.61-.24,1.26-.37,1.92,1.3.79,2.54,1.67,3.71,2.63l-4.25.3h0c-.79,4.36-1.61,9.42-2.26,14.6h0s15.8-.93,15.8-.93l8.17-.48c0-5.25-1.36-10.18-3.74-14.47l-.8.06Z"/>
        <path class="cls-16" d="M583.55,584.8c2.47,1.71,5.14,2.69,7.92,3.24,2.67-.67,5.46-.92,8.26-1.01-2.69-2.66-4.39-6.3-4.52-10.36-3.36.93-6.63,2.19-9.74,3.8-1.34.7-2.78,1.39-4.28,2.03.16.25.34.48.53.7.53.6,1.17,1.13,1.84,1.59Z"/>
        <path class="cls-16" d="M625.71,576.14s0,.05,0,.08c0,4.48-1.94,8.49-5.01,11.29,2.27.2,4.73.48,6.94.87,4.95-.67,10.52-2.37,12.05-6.58-6.59-2.62-5.58-3.61-13.41-5.53-.18-.04-.39-.08-.58-.12Z"/>
        <path class="cls-30" d="M765.29,575.5c2.9.95,5.86,1.55,8.98,1.77.21-2.47.48-4.97.79-7.45h0c.65-5.18,1.47-10.25,2.26-14.6h0c.18-1.02.37-2.01.54-2.94.13-.66.25-1.31.37-1.92.33-1.72.64-3.23.91-4.48.33-1.55.57-2.67.71-3.28,0,0-.02-.01-.03-.02-.04.21-.08.42-.11.62-3.2-1.16-7.05-2.19-10.66-2.19h-37.68c-16.49,0-29.92,13.38-29.98,29.87v8.02c0,2.33.24,4.6.7,6.79,6.79-1.91,10.71-6.87,26.42-11.69,16.58-5.09,28.24-1.31,36.78,1.48ZM765.03,566.92c2.35,2.32,4.11,5.24,5.08,8.36-3.49-5.33-8.64-8.97-14.57-10.95-17.26-5.95-38.92-1.95-51.32,12.07,10.79-19.91,44.39-25.06,60.81-9.48Z"/>
        <path class="cls-5" d="M723.12,617.2c.14.12.27.25.41.37,3.5,1.08,7.22,1.66,11.07,1.66h34.45c3.97,0,7.77-.67,11.32-1.92-.21-.8-.42-1.58-.63-2.36-3.37,1.1-6.95,1.7-10.68,1.7h-34.45c-5.63,0-10.97-1.25-15.77-3.47,1.35,1.32,2.77,2.66,4.29,4.01Z"/>
        <path class="cls-5" d="M731.37,541.02h37.68c3.61,0,7.46,1.03,10.66,2.19.04-.2.08-.41.11-.62-1.36-1.09-3.32-2.4-6.06-3.77-1.54-.24-3.11-.37-4.71-.37h-37.68c-16.53,0-29.98,13.45-29.98,29.98v2.47c.06-16.49,13.48-29.87,29.98-29.87Z"/>
        <path class="cls-5" d="M696.86,572.4s0,0,0,0v-1.43s0,.02,0,.03v1.4Z"/>
        <path class="cls-32" d="M769.05,533.92h-37.68c-17.81,0-32.51,13.56-34.32,30.9-6-1.6-12.68-1.31-18.15-.53-.22.03-.43.06-.64.09-2.95.45-5.5,1.03-7.36,1.51-.86-11.66-6.6-21.98-15.19-28.91-7.05-5.7-16.02-9.12-25.78-9.12h-51.32c-16.51,0-30.76,9.79-37.29,23.86l-6.84-.19h0l-3.41-.1s-.53.17-1.23.72c-1.3,1.03-3.19,3.44-3.34,8.8-.23,8.23,4.02,9.76,4.02,9.76l6.99.2v9.85c0,7.72,2.77,15.18,7.4,21.59,5.87,8.13,14.74,14.55,24.8,17.59,4.1,1.24,8.39,1.91,12.75,1.91h43.6c11.03,0,21.6-4.31,29.72-11.1,3.27-2.74,6.14-5.87,8.48-9.3,4.24-6.2,6.75-13.33,6.75-20.69v-10.2c1.97-.54,5.34-1.35,9.27-1.87.17-.02.33-.04.5-.06,5.08-.63,11.01-.74,16.07.86v2.92c2.68,13.76,7.3,26.41,21.96,40.79,4.8,2.22,10.14,3.47,15.77,3.47h34.45c3.73,0,7.32-.6,10.68-1.7,8.76-2.86,15.99-9.13,20.1-17.24,2.38-4.68,3.72-9.97,3.72-15.56v-13.72c0-.09,0-.18,0-.28,0-.08,0-.16,0-.24l1.02-.09,3.42-.31s3.17-1.37,2.6-7.64c-.57-6.26-3.94-7.04-3.94-7.04l-6.52.59c-1.45-2.99-3.32-5.75-5.54-8.19-6.32-6.95-15.43-11.32-25.54-11.32ZM652.64,606.74c-7.55,6.23-17.33,9.95-26.57,9.95h-43.6c-12.42,0-25.81-6.72-33.46-17.22-3.92-5.38-6.34-11.75-6.34-18.73v-11.81c0-19.82,16.13-35.95,35.95-35.95h51.32c19.82,0,35.95,16.13,35.95,35.95v11.81c0,10.45-5.43,19.56-13.23,25.99ZM799.03,568.42v13.72c0,2.6-.33,5.12-.96,7.53-2.56,9.86-10.02,17.75-19.61,20.93-2.96.98-6.12,1.52-9.41,1.52h-34.45c-15.09,0-27.85-10.12-31.88-23.93-1.52-.76-1.79-2.19-1.79-2.19.4-.09.78-.19,1.16-.29-.46-2.19-.7-4.47-.7-6.79v-10.5c0-16.53,13.45-29.98,29.98-29.98h37.68c1.6,0,3.18.13,4.71.37,8.8,1.4,16.33,6.63,20.83,13.93.24.39.47.79.69,1.19,2.38,4.29,3.74,9.23,3.74,14.47,0,0,0,0,0,.01Z"/>
        <path class="cls-27" d="M629.93,527.85c9.76,0,18.72,3.42,25.78,9.12.04.01.09.03.13.04,2.79-.5,4.29-2.87,4.48-5.9.3-4.98-2.96-11.72-9.9-14.78-11.16-4.93-56.97-10.84-79.79-1.48-12.13,4.98-19.95,10.32-24.73,15-4.21,4.12-6.08,7.73-6.46,10.12-.82,5.09,7.22-7.39,22.99-11,9.05-2.07,26.66-2.95,46.82-1.12h20.69Z"/>
        <path class="cls-27" d="M595.2,576.68c.12,4.05,1.83,7.69,4.52,10.36,1.86-.06,3.72-.05,5.56-.03,2.78.03,5.55.06,8.33.1,1.07.01,3.88.12,7.09.4,3.07-2.79,5.01-6.81,5.01-11.29,0-.03,0-.05,0-.08.19.04.41.08.58.12,7.82,1.92,6.82,2.91,13.41,5.53.18.07.35.14.55.22,7.22,2.79,10.67-.99,10.67-.99-7.55-1.64-11-6.9-27.58-11.98-16.58-5.09-28.24-1.31-36.78,1.48-8.54,2.79-17.57,2.63-29.72-1.48,1.81,8.54,18.55,11.82,18.55,11.82-2.38,2.38-10.34,4.93-10.34,4.93,5.21.59,11.03-1.07,16.13-3.27,1.5-.65,2.94-1.34,4.28-2.03,3.12-1.62,6.39-2.88,9.74-3.8ZM621.49,575.62c0,1.72-1.4,3.12-3.12,3.12s-3.12-1.4-3.12-3.12,1.4-3.12,3.12-3.12,3.12,1.4,3.12,3.12Z"/>
        <path class="cls-11" d="M726.14,581.2s0-.08,0-.12c-6.18,1.73-9.93,3.78-15.63,6.09.74,1.01,1.67,1.88,2.77,2.5,2.83,1.61,5.9,2.79,9.08,3.49.79.17,1.59.31,2.38.43,1.88-.94,4.45-.97,6.45-1.05-3.11-2.79-5.07-6.83-5.07-11.34Z"/>
        <path class="cls-11" d="M766.39,585.47c-3.12-1.62-6.39-2.88-9.74-3.8-.12,4.09-1.85,7.75-4.58,10.42,2.46.1,4.91.28,7.36.57,1.42.17,2.84.38,4.23.69.97-.22,1.92-.53,2.81-.96,2.01-.97,3.6-2.8,4.81-4.63-1.72-.72-3.36-1.5-4.88-2.29Z"/>
        <path class="cls-27" d="M709.02,587.76c.52-.2,1.01-.4,1.5-.59,5.7-2.3,9.44-4.36,15.63-6.09,0,.04,0,.08,0,.12,0,4.51,1.96,8.55,5.07,11.34.22,0,.44-.02.64-.03,6.73-.39,13.49-.71,20.22-.43,2.73-2.67,4.46-6.33,4.58-10.42,3.36.93,6.63,2.19,9.74,3.8,1.52.79,3.17,1.57,4.88,2.29.85.35,1.71.69,2.59,1,4.25,1.52,8.79,2.48,12.94,2.01,0,0-7.96-2.54-10.34-4.93,0,0,13.48-2.65,17.55-9.36.47-.77.82-1.59,1-2.46-.58.2-1.16.38-1.73.56-7.26,2.28-13.4,3.1-19.01,2.69-3.12-.23-6.08-.83-8.98-1.77-8.54-2.79-20.19-6.57-36.78-1.48-15.71,4.82-19.63,9.79-26.42,11.69-.38.11-.76.2-1.16.29,0,0,.27,1.43,1.79,2.19,1.18.6,3.13.78,6.3-.44ZM749.37,583.66c-1.72,0-3.12-1.4-3.12-3.12s1.4-3.12,3.12-3.12,3.12,1.4,3.12,3.12-1.4,3.12-3.12,3.12Z"/>
        <path class="cls-5" d="M710.07,686.64c1.97-.3,3.89-1.04,5.87-1.17,0,0,0,0,0,0-3.7-1.27-4.86-3.09-7.29-7.3-.78-1.36-1.65-2.8-2.56-3.18-.19-.08-.39-.1-.49.11-.07.14-.09.37-.09.59-.05,3.04,1.38,6.42,2.34,9.64.14.48.27.97.4,1.45.61-.01,1.23-.05,1.83-.15Z"/>
        <path class="cls-8" d="M700.25,646.67c.79-.33,1.49-1.01,1.64-1.85.18-.95-.35-1.93-1.11-2.54-3.15-2.56-9.35-1.48-12.9-.46-1.58.45-3.01,1.13-4.42,1.95-.7.41-2.7,1.36-1.62,2.25.13.1.3.21.52.31.73.34,1.59.13,2.38-.04,1.41-.29,2.85-.41,4.29-.34,2.92.13,5.77.98,8.69,1.08.86.03,1.74-.02,2.54-.35Z"/>
        <path class="cls-21" d="M755.53,564.34c5.93,1.98,11.08,5.62,14.57,10.95-.97-3.12-2.73-6.04-5.08-8.36-16.42-15.58-50.02-10.43-60.81,9.48,12.39-14.02,34.06-18.02,51.32-12.07Z"/>
        <path class="cls-21" d="M752.06,592.09c-6.73-.28-13.49.04-20.22.43-.2.01-.42.02-.64.03-2,.08-4.58.11-6.45,1.05-.54.27-1.04.6-1.43,1.06,3.22.12,6.42,0,9.64.31-.59,1.3-.5,2.88.22,4.11,1.42-1.88,3.16-3.93,5.51-3.98-.51,2.41-.85,5.23.81,7.05.12-1.4.38-2.79.76-4.14.34-1.18.86-2.43,1.93-3.04.65-.37,1.48-.55,2.02-.02.61.59,1.08,1.44,1.49,2.18.85,1.54,1.42,3.24,1.64,4.99.29-.25.45-.61.59-.97.74-2.02.93-4.24.55-6.36,2.06.09,3.43,1.8,4.56,3.32.96,1.29,1.92,2.59,2.87,3.88-.14-.18.55-2.13-.33-4.16-.52-1.21-.88-2.07-1.84-3.1,1.03.25,2.08.5,3.01,1.01.58.32,1.1.72,1.59,1.16,1.31,1.14,2.46,2.47,3.29,3.99,0-2.28-.87-4.14-2.1-5.99.61-.06,1.5.28,2.11.39.87.16,1.73.36,2.59.58,2.64.72,5.19,1.92,7.16,3.82.58.56,1.39,1.22,2.07.8-1.03-2.62-3.32-4.61-5.87-5.8-1.26-.59-2.59-1-3.94-1.31-1.39-.32-2.81-.53-4.23-.69-2.45-.29-4.9-.47-7.36-.57Z"/>
        <path class="cls-1" d="M738.22,700.46c-.71-.14-1.44,0-2.15.12-4.18.73-8.42,1.25-12.64,1.69-4,.41-7.53,1.78-11.41,2.77-1.8.46-3.69.8-5.55.61-2.1-.22-4.67-.88-6.7-1.37-2.28-.55-11.04-.79-13.43-.79-4.87,0-9.75,0-14.62-.11-4.88-.12-9.76-.35-14.62-.8-4.8-.45-9.57-1.15-14.32-1.9-4.13-.66-8.26-1.22-12.42-1.65-.86-.09-1.73-.2-2.6-.32-1.67-.19-3.32-.57-4.9-1.27,18.89,10.06,21.2,16.87,41.88,24.14,30.16,10.61,48.72,4.92,57.81,1,1.09-.47,2.06-.92,2.88-1.31,3.14-1.48,5.19-4.4,6.67-7.44.85-1.74,1.53-3.56,2.3-5.34.3-.69.6-1.42,1.02-2.04.79-1.17,1.53-2.44,2.39-3.58.26-.35.54-.69.71-1.08.05-.1.09-.22.12-.33.11-.43,0-.74-.25-.95,0,0-.01,0-.02.02-.05-.01-.11-.04-.16-.05ZM697.83,714.44c-1.1.58-2.38.7-3.62.78-5.72.37-11.22-.65-16.7-2.12-1.69-.45-3.44-.96-4.97-1.83-1.53-.88-2.17-2.58-.02-2.88,7.03-.97,14.35-.46,21.43-.24,1.24.04,2.51.09,3.64.58.91.39,1.72,1.13,2.04,2.05.08.23.13.47.14.72.06,1.24-.84,2.37-1.94,2.95Z"/>
        <path class="cls-20" d="M695.94,684.35c-1.15.2-2.27.6-3.38.98-5.47,1.89-11.02,3.55-16.66,4.88-9.24,2.18-18.36,5.09-27.93,5.51-6.02.27-11.74,1.24-17.83.39-9.44-1.31-7.31,1.31-7.31,1.31,0,0,.01,0,.02,0,0,0-.01,0-.02,0,1.54.68,3.23,1.03,4.92,1.28.87.13,1.75.23,2.6.32,4.16.43,8.29.99,12.42,1.65,4.76.75,9.53,1.45,14.32,1.9,4.86.45,9.74.69,14.62.8,4.87.12,9.74.12,14.62.11,2.39,0,11.15.24,13.43.79,2.03.49,4.6,1.15,6.7,1.37,1.86.2,3.75-.15,5.55-.61,3.87-.99,7.4-2.35,11.41-2.77,4.22-.44,8.46-.96,12.64-1.69.71-.12,1.44-.25,2.15-.12.05.01.11.04.16.05,0,0,.01-.01.02-.02.01-.01.03-.02.04-.03.58-.56.86-1.61.25-2.15-.36-.32-.89-.33-1.37-.34-1.12,0-2.26-.02-3.36-.24-2.97-.59-4.59-1.9-6.36-4.22-2.76-3.61-6.07-8.09-11.11-8.07-.19,0-.37.02-.56.03-1.98.13-3.9.86-5.87,1.17-.61.09-1.22.13-1.83.15-1.57.03-3.14-.2-4.62-.71-1.86-.63-3.63-1.68-5.59-1.85-.06,0-.12,0-.19,0-.64-.04-1.27,0-1.9.12Z"/>
        <path class="cls-27" d="M530.53,570.7s-4.26-1.53-4.02-9.76c.15-5.36,2.04-7.76,3.34-8.8l-25.15,3.38-33.34,4.48c4.58,4.53,8.52,9.78,11.83,16.87l5.97-.78,41.37-5.39Z"/>
        <path class="cls-10" d="M699.77,711.49c-.01-.25-.06-.49-.14-.72-.32-.91-1.13-1.65-2.04-2.05-1.13-.49-2.4-.54-3.64-.58-7.08-.22-14.4-.73-21.43.24-2.15.3-1.52,2,.02,2.88,1.53.87,3.28,1.38,4.97,1.83,5.48,1.47,10.98,2.49,16.7,2.12,1.24-.08,2.51-.21,3.62-.78,1.1-.58,2-1.71,1.94-2.95Z"/>
        <path class="cls-21" d="M665.88,580.75v-11.81c0-19.82-16.13-35.95-35.95-35.95h-51.32c-19.82,0-35.95,16.13-35.95,35.95v11.81c0,6.97,2.42,13.35,6.34,18.73,2-1.32,4.03-2.59,6.08-3.82,3.96-2.38,7.93-4.84,12.06-6.89,4.48-2.23,9.18-4,13.99-5.39.19-.06.38-.11.58-.16-.19-.22-.37-.45-.53-.7-5.1,2.2-10.92,3.86-16.13,3.27,0,0,7.96-2.54,10.34-4.93,0,0-16.75-3.28-18.55-11.82,12.15,4.1,21.18,4.27,29.72,1.48,8.54-2.79,20.19-6.57,36.78-1.48,16.58,5.09,20.03,10.34,27.58,11.98,0,0-3.45,3.78-10.67.99-.2-.08-.36-.15-.55-.22-1.53,4.21-7.1,5.91-12.05,6.58-2.21-.39-4.67-.67-6.94-.87-3.21-.28-6.02-.38-7.09-.4-2.78-.03-5.55-.06-8.33-.1-1.84-.02-3.7-.03-5.56.03-2.8.09-5.59.34-8.26,1.01-1.45.36-2.86.84-4.22,1.48-1.8.85-4.67,2.37-4.72,4.67,3.5-2.75,8.23-3.17,12.67-3.48-.61,1.57-.4,3.43.53,4.83.99-1.66,2.33-3.26,4.17-3.83.96-.3,1.98-.29,2.98-.29,1.87.01,3.75.02,5.62.03.32,1.82.81,3.61,1.48,5.33.37-1.61,1.02-3.15,1.9-4.54.2-.32.42-.64.71-.88.33-.28.73-.45,1.13-.59,2.02-.67,4.28-.43,6.24.39,1.96.83,3.66,2.2,5.1,3.78.23-.95.29-2,.09-2.96-.15-.71-.39-.94-.51-1.62,2.1-.33,4.62-.05,6.59.64,1.08.38,3.71,1,5.68,2.98-.35-.92-.83-1.61-1.38-2.17.23.11.47.2.7.32,3.22,1.59,6.11,3.87,8.95,6.11,2.88,2.27,6.12,4.64,9.79,4.47.29-.01.59-.05.88-.09-.98,1.45-2.06,2.83-3.24,4.14,7.8-6.43,13.23-15.54,13.23-25.99ZM611.59,564.93c-2.3-1.56-1.07-8.7,1.81-9.11,2.87-.41,17.24,5.59,26.6,17.77,0,0-16.66-8.66-28.4-8.66Z"/>
        <circle class="cls-11" cx="749.37" cy="580.54" r="3.12"/>
        <path class="cls-11" d="M618.37,572.5c-1.72,0-3.12,1.4-3.12,3.12s1.4,3.12,3.12,3.12,3.12-1.4,3.12-3.12-1.4-3.12-3.12-3.12Z"/>
        <path class="cls-31" d="M376.7,676.83c-9.71-13.31-12.27-30.9-12.43-48.2,0-.41,0-.81.01-1.22-2.91,5.46-4.82,11.45-5.47,17.61-1.56,14.93,3.43,31.56-4.8,44.12-7.13,10.88-21.86,14.54-29.68,24.94-8.54,11.37-6.52,27.27-10.63,40.88-3.33,11.06-10.66,20.38-16.72,30.2-6.07,9.83-11.1,21.26-9.05,32.62,1.79,9.94,8.67,18.09,15.29,25.71-2.48-8.21-3.81-16.76-3.93-25.34-.07-5.11.32-10.35,2.42-15.01,6.65-14.75,27.23-18.17,35.65-31.99,8.01-13.14,2.48-31.48,10.86-44.38,4.84-7.45,13.36-11.53,19.95-17.49,5.99-5.43,10.42-12.57,12.62-20.35.26-.92.48-1.85.69-2.78-1.16-2.39-2.23-4.81-3.19-7.28-.55-.67-1.08-1.36-1.59-2.06Z"/>
        <path class="cls-7" d="M613.4,555.82c-2.87.41-4.1,7.55-1.81,9.11,11.74,0,28.4,8.66,28.4,8.66-9.36-12.19-23.72-18.19-26.6-17.77Z"/>
        <path class="cls-14" d="M496.15,739.78c2.03-10.35,1.7-21.67-1.08-32.86-1.14-4.6-2.65-8.96-4.47-13.07-1.36,4.41-3.05,8.67-5.16,12.69-.53,1.01-1.09,1.98-1.67,2.93.02.08.04.15.06.23,3.25,13.13,2.62,26.32-1.77,37.13-4.13,10.17-11.11,16.94-19.66,19.06-5.52,1.37-11.37.7-17.08-1.84-1.42,3.57-3.18,7.04-5.25,10.35,5.39,2.49,10.96,3.78,16.5,3.78,2.89,0,5.77-.35,8.61-1.05,9.33-2.31,17.24-8.22,22.94-16.96,1.78-2.73,3.35-5.72,4.67-8.98,1.47-3.61,2.58-7.44,3.35-11.4Z"/>
        <path class="cls-31" d="M446.29,730.16c-21.02.95-41.03-11.16-54.27-27.41-.29-.36-.57-.73-.85-1.09-.58,1.81-1.09,3.64-1.49,5.51-2.02,9.49-1.09,20.05,4.72,27.82,3.16,4.23,7.72,7.64,9.29,12.68,1.91,6.14-1.4,12.91-6.28,17.11-4.87,4.2-11.08,6.44-17.01,8.94-12.54,5.28-24.45,12.07-35.39,20.15-3.37,2.49-6.75,5.23-8.67,8.95-3.33,6.48-1.51,14.38,1.25,21.12,5.11,12.46,13.25,23.67,23.53,32.37,11.72,9.93,26.04,16.57,37.1,27.24,11.06,10.66,18.38,27.82,11.25,41.43-4.45,8.5-13.51,13.71-18.51,21.89-8.56,14.04-2.97,32.24,4.28,47,6.61,13.47,14.31,26.71,18.26,41.29,3.26,12.03,5.02,30.23-5.38,39.43-16.95,14.99-47.73-3.4-59.9-16.82,4.99,21.07,27.52,33.4,48.91,36.8,40.92,6.5,45.94-41.6,32.93-75.51-6.86-17.88-17.79-41.11-11.05-59.85,4.98-13.85,20.93-21.4,26.08-35.18,4.82-12.9-1.23-27.29-8.86-38.75-7.4-11.13-16.41-21.19-26.64-29.78-9.76-8.19-21.93-18.11-19.43-30.61.93-4.67,3.91-8.67,7.22-12.08,8.63-8.9,19.83-14.83,29.28-22.85,5.16-4.38,9.75-9.71,13.42-15.58,2.07-3.3,3.83-6.78,5.25-10.35,4.4-11.1,5.35-23.12.96-33.88Z"/>
        <path class="cls-28" d="M499.51,335.91s-1.77.65-4.57,2.15l4.57-2.15Z"/>
        <path class="cls-15" d="M462.45,359.98c-12.02,16.56-25.48,78.72-20.04,184.53-.4-.06-.8-.14-1.2-.19-12.98-.1-24.97,3.47-35.28,9.91,6.46-3.62,13.57-5.74,21.12-6.05,6.66.63,13.51,3.45,19.75,9.12,12.26,11.11,19.93,24.85,23.41,70.59,1.7,22.33,2.43,49.04-6.49,69.98-4.33,10.15-10.88,17.22-21.73,21.38-19.88,7.63-40-3.91-52.63-21.24-3.87-5.31-6.95-11.1-9.42-17.2-.56-.62-1.12-1.26-1.65-1.92.96,2.47,2.02,4.89,3.19,7.28,2.64,5.42,5.84,10.6,9.68,15.49.29.36.56.73.85,1.09,13.24,16.25,33.26,28.35,54.27,27.41,3.84-.17,7.72-.78,11.6-1.88,12.38-3.52,20.36-9.78,25.89-18.82.58-.95,1.14-1.92,1.67-2.93,2.11-4.03,3.8-8.29,5.16-12.69,5.48-17.76,5.44-38.03,4.26-56.25-.12-1.9-.26-3.79-.4-5.64-1.86-23.93-5.06-39.79-9.61-51.22-.54-1.35-1.09-2.63-1.67-3.87-3.32-7.1-7.26-12.35-11.83-16.87-1.72-1.7-3.53-3.3-5.43-4.86-3.96-3.26-8.12-5.73-12.36-7.51-8.04-100.92-1.22-154.44,13.44-181.58,8.64-16,21.25-24.41,27.94-27.98,2.8-1.5,4.57-2.15,4.57-2.15,0,0-.29.03-.82.11-4.01.62-22.06,4.43-36.23,23.96Z"/>
        <path class="cls-15" d="M386.02,573c-3.15,4.37-5.88,9.15-8.17,14.29.32-.36.64-.72.97-1.07,2.04-4.78,4.46-9.2,7.2-13.22Z"/>
        <path class="cls-28" d="M404.56,555.01c-7.11,4.28-13.39,10.42-18.53,18-2.73,4.02-5.15,8.44-7.2,13.22,1.82-1.95,3.79-3.68,5.87-5.16,7.56-8.79,17.42-14.16,28.46-14.61,5.22.49,10.59,2.71,15.48,7.15,9.61,8.71,15.62,19.48,18.35,55.33.95,12.5,1.51,26.73-.8,39.83,0,0,0,0,0,0,0,0,0,0,0,0-.92,5.25-2.29,10.33-4.29,15.02-3.39,7.95-8.53,13.5-17.03,16.76-15,5.76-30.18-2.42-40.13-15.16-1.69-1.39-3.3-2.92-4.8-4.58,2.47,6.1,5.54,11.89,9.42,17.2,12.64,17.32,32.76,28.87,52.63,21.24,10.85-4.16,17.4-11.24,21.73-21.38,8.93-20.94,8.19-47.65,6.49-69.98-3.48-45.74-11.15-59.48-23.41-70.59-6.24-5.67-13.09-8.49-19.75-9.12-7.55.31-14.65,2.43-21.12,6.05,10.31-6.43,22.31-10.01,35.28-9.91.4.05.8.13,1.2.19-5.44-105.81,8.02-167.97,20.04-184.53,14.18-19.53,32.23-23.34,36.23-23.96-5.18.74-33.66,5.38-51.39,20.47-3.24,2.76-7.14,8.11-11.24,15.82-15.93,29.92-35.04,95.36-31.51,182.7Z"/>
        <path class="cls-2" d="M415.8,581.06c8.35,7.56,13.56,16.92,15.93,48.04.64,8.43,1.07,17.78.29,26.87-.01.17-.03.35-.05.52-.09,1.04-.21,2.07-.34,3.1-.02.17-.03.34-.06.51,0,0,0,0,0,0-.69,5.31-1.85,10.47-3.71,15.23,2.19-.67,4.36-1.38,6.51-2.11,3.99-1.35,7.93-2.84,11.82-4.46,0,0,0,0,0,0,2.31-13.1,1.75-27.33.8-39.83-2.73-35.85-8.74-46.63-18.35-55.33-4.89-4.44-10.26-6.66-15.48-7.15-11.04.45-20.9,5.82-28.46,14.61,5.23-3.73,11.21-5.94,17.66-6.2,4.53.43,9.19,2.35,13.44,6.21Z"/>
        <path class="cls-5" d="M434.37,673.22c-2.15.73-4.33,1.44-6.51,2.11-.18.47-.35.94-.55,1.4-.26.61-.53,1.2-.81,1.77-.07.14-.15.25-.23.38-2.93,5.75-7.17,9.88-13.75,12.41-9.85,3.78-19.79.64-27.78-5.9,9.95,12.74,25.13,20.92,40.13,15.16,8.5-3.26,13.64-8.81,17.03-16.76,2-4.7,3.37-9.77,4.29-15.02,0,0,0,0,0,0-3.89,1.62-7.83,3.11-11.82,4.46Z"/>
        <path class="cls-9" d="M364.45,622.59c.07-.94.15-1.86.24-2.78-.1.92-.18,1.85-.24,2.78Z"/>
        <path class="cls-9" d="M364.71,619.69c.09-.86.2-1.72.32-2.57-.12.85-.23,1.71-.32,2.57Z"/>
        <path class="cls-9" d="M431.97,656.49c-.09,1.04-.21,2.07-.34,3.1.13-1.03.24-2.06.34-3.1Z"/>
        <path class="cls-9" d="M398.45,650.47l28.02,28.02c-.07.13-.14.25-.21.39.07-.13.16-.23.23-.38.28-.57.55-1.16.81-1.77.2-.46.37-.94.55-1.4,1.86-4.76,3.02-9.92,3.71-15.23-3.8-3.8-7.59-7.59-11.39-11.39l-33.81-33.81c-5.33-5.33-10.66-10.66-15.99-15.99.93-1.97,1.96-3.84,3.07-5.62,10.75,10.75,21.51,21.51,32.26,32.26,8.86,8.86,17.71,17.71,26.57,26.57-.06,1.29-.15,2.57-.26,3.85.78-9.09.35-18.43-.29-26.87-2.37-31.13-7.59-40.48-15.93-48.04-4.25-3.86-8.91-5.78-13.44-6.21-6.45.26-12.43,2.47-17.66,6.2-2.08,1.49-4.05,3.21-5.87,5.16-.33.35-.65.7-.97,1.07-6.51,7.45-11.08,17.78-12.82,29.77,11.14,11.14,22.28,22.28,33.41,33.41Z"/>
        <path class="cls-32" d="M431.63,659.6c.13-1.03.24-2.06.34-3.1.02-.17.03-.35.05-.52.11-1.28.2-2.56.26-3.85-8.86-8.86-17.71-17.71-26.57-26.57-10.75-10.75-21.51-21.51-32.26-32.26-1.11,1.77-2.14,3.64-3.07,5.62,5.33,5.33,10.66,10.66,15.99,15.99l33.81,33.81c3.8,3.8,7.59,7.59,11.39,11.39,0,0,0,0,0,0,.02-.17.03-.34.06-.51Z"/>
        <path class="cls-32" d="M376.7,676.83c.51.7,1.04,1.39,1.59,2.06.53.66,1.08,1.29,1.65,1.92,1.5,1.66,3.11,3.19,4.8,4.58,8,6.54,17.93,9.68,27.78,5.9,6.58-2.53,10.81-6.66,13.75-12.41.07-.13.14-.25.21-.39l-28.02-28.02c-11.14-11.14-22.28-22.28-33.41-33.41,0,0,0,0,0,0,0,.02,0,.04,0,.06-.12.85-.23,1.71-.32,2.57,0,.04,0,.08-.01.12-.1.92-.18,1.85-.24,2.78,0,.06-.01.13-.02.19-.06.83-.09,1.67-.12,2.51,0,.14-.01.28-.02.42-.02.56-.01,1.13-.02,1.7,0,.41-.02.81-.01,1.22.16,17.3,2.73,34.9,12.43,48.2Z"/>
        <path class="cls-24" d="M300.82,860.45c3.98,3.99,8.02,7.91,12.12,11.77,5.91,5.56,14.33,12.42,16.95,20.39,2.43,7.4,4.07,15.96,5.81,23.63,4.55,19.96,4.74,40.94.22,60.92-1.89,8.36-4.57,16.55-5.87,25.02-.82,5.35-1.04,11.05,1.29,15.93,1.57,3.28,4.18,5.94,6.85,8.41,11.18,10.35,24.31,18.58,38.49,24.13,2.99,1.17,6.28,2.24,9.37,1.35,1.79-.51,3.34-1.64,4.68-2.93,6.2-5.93,8.37-15.44,6.22-23.74-2.15-8.31-8.24-15.31-15.74-19.47,3.12,3.72,5.18,8.31,5.89,13.11.72,4.92-.16,10.4-3.72,13.87-4.94,4.82-13.32,4.07-19.25.53-10.98-6.53-15.85-20.51-14.64-33.23,1.21-12.72,7.49-24.38,14.54-35.03,3.15-4.76,6.51-9.44,8.7-14.71,2.19-5.27,3.14-11.3,1.29-16.69-3.62-10.57-16.28-15.37-21.56-25.21-4.89-9.12-2.57-20.95-7.94-29.81-4.05-6.69-11.61-10.26-18.75-13.46-12-5.38-23.99-10.77-35.99-16.15,3.77,1.69,8.05,8.38,11.03,11.37Z"/>
        <path class="cls-23" d="M460.52,400.27c5.34-6.82,13.59-10.81,22-12.91,8.4-2.09,17.12-2.5,25.72-3.47,15.92-1.8,31.98-5.73,45.26-14.68,7.8-5.25,14.44-12.09,22.27-17.28,15.02-9.96,33.36-13.24,51.12-16.29-13.94-1.8-28.03-2.45-42.08-1.95,12.31-7.41,25.12-13.98,38.31-19.66-2.86,1.23-13.52-1.97-17.18-2.08-4.89-.14-9.8-.05-14.62.87-10.49,2-20.61,6.72-28.74,13.67-10.99,9.39-17.92,22.63-30.54,30.31-11.71,7.12-26.01,8.39-38.67,13.62-13.95,5.76-25.78,16.51-32.85,29.84Z"/>
        <path class="cls-17" d="M715.14,937.4c-45.85,230.8-202.55,330.56-202.55,330.56h31.28c4.87-3.05,131.88-84.58,171.27-330.56Z"/>
        <path class="cls-29" d="M681.69,1104.33l2.12-7.42,48.73,13.93c29.47-78.33,46.16-151.59,41.93-160.14-.23-.47-.48-.92-.72-1.37-6.06-11.54-14.95-20.03-25.8-25.91-16.24-8.8-36.85-11.78-58.88-10.48,0,0,0,0,0,0l.55,4.8c.46,4.03,1.16,8.04,2.08,11.99l1.25,5.35,14.2,1.48,6.47.68,1.52.16c-39.39,245.98-166.39,327.51-171.27,330.56-.1.06-.16.1-.16.1l106.51-.1c30.83-37.75,58.3-94.61,79.57-149.87l-48.1-13.75Z"/>
        <polygon class="cls-27" points="683.81 1096.92 681.69 1104.33 729.79 1118.08 740.38 1121.11 742.5 1113.69 732.54 1110.85 683.81 1096.92"/>
      </g>
    </g>
  </g>
</svg>